<svg id="Layer_1" height="512" viewBox="0 0 64 64" width="512" xmlns="http://www.w3.org/2000/svg" data-name="Layer 1"><path d="m50 16h-49l5 25h41z" fill="#23a8cc"/><circle cx="18.769" cy="59.231" fill="#fcc325" r="3.577"/><circle cx="40.231" cy="59.231" fill="#fcc325" r="3.577"/><g fill="#043c49"><path d="m63 0h-9a1 1 0 0 0 -.966.742l-3.803 14.258h-48.231a1 1 0 0 0 -.98 1.2l5 25a1 1 0 0 0 .98.8h40v9h-36a1 1 0 0 0 -.871.51l-2.25 4a1 1 0 1 0 1.742.98l1.964-3.49h36.415a1 1 0 0 0 1-1v-10.938l.993-8.276a1 1 0 1 0 -1.986-.238l-.894 7.452h-39.294l-4.599-23h46.653l-.586 4.881a1 1 0 0 0 1.986.238l.727-5.995 3.769-14.124h8.231a1 1 0 0 0 0-2z"/><path d="m48.919 25.007a1 1 0 0 0 -1.112.874l-.24 2a1 1 0 0 0 1.986.238l.24-2a1 1 0 0 0 -.874-1.112z"/><path d="m18.77 54.654a4.577 4.577 0 1 0 4.576 4.576 4.582 4.582 0 0 0 -4.576-4.576zm0 7.153a2.577 2.577 0 1 1 2.576-2.577 2.58 2.58 0 0 1 -2.576 2.578z"/><path d="m40.23 54.654a4.577 4.577 0 1 0 4.577 4.576 4.581 4.581 0 0 0 -4.577-4.576zm0 7.153a2.577 2.577 0 1 1 2.577-2.577 2.579 2.579 0 0 1 -2.577 2.578z"/><path d="m46 21a1 1 0 0 0 -1-1h-37a1 1 0 0 0 0 2h37a1 1 0 0 0 1-1z"/><path d="m45 26a1 1 0 0 0 -1-1h-35a1 1 0 0 0 0 2h35a1 1 0 0 0 1-1z"/><path d="m44 31a1 1 0 0 0 -1-1h-33a1 1 0 0 0 0 2h33a1 1 0 0 0 1-1z"/><path d="m11 35a1 1 0 0 0 0 2h19a1 1 0 0 0 0-2z"/><path d="m15 50a1 1 0 0 0 0-2h-1a1 1 0 0 0 0 2z"/><path d="m19 50a1 1 0 0 0 0-2h-1a1 1 0 0 0 0 2z"/><path d="m10 50h1a1 1 0 0 0 0-2h-1a1 1 0 0 0 0 2z"/><path d="m37 35a1 1 0 0 0 0 2h1a1 1 0 0 0 0-2z"/><path d="m41 35a1 1 0 0 0 0 2h1a1 1 0 0 0 0-2z"/><path d="m33 35a1 1 0 0 0 0 2h1a1 1 0 0 0 0-2z"/></g></svg>